<svg xmlns="http://www.w3.org/2000/svg" width="266.71" height="76.68" viewBox="0 0 266.71 76.68">
  <g>
    <path d="M250.29,60a17.2,17.2,0,0,1-13.44-6.79,21.26,21.26,0,0,1,.09-25.92A17.38,17.38,0,0,1,250,20.6a17.2,17.2,0,0,1,13.24,6q.42.48.81,1a12.47,12.47,0,0,1-2,17.29A10.46,10.46,0,0,1,247,43.58l-.17-.19a4.69,4.69,0,1,1,7-6.2l.17.19c.66.74,1.15,1,2.06.23a3.1,3.1,0,0,0,.49-4.32q-.19-.26-.42-.51a7.71,7.71,0,0,0-6-2.8,8,8,0,0,0-6,3.16,12,12,0,0,0,0,14.24,7.93,7.93,0,0,0,6.32,3.22H262A4.69,4.69,0,1,1,262,60H250.29Z" style="fill: #a5d61d"/>
    <path d="M30.49.4a5.12,5.12,0,0,0-4,5.08V24.15a1,1,0,0,1-1,1H11a1,1,0,0,1-1-1V5.48A5.12,5.12,0,0,0,6,.4,5,5,0,0,0,0,5.29V55.11a5.12,5.12,0,0,0,4,5.08,5,5,0,0,0,6-4.9V36.15a1,1,0,0,1,1-1H25.53a1,1,0,0,1,1,1v19a5.12,5.12,0,0,0,4,5.08,5,5,0,0,0,6-4.9v-50A5,5,0,0,0,30.49.4Z" style="fill: #64bb5c"/>
    <path d="M185.34,20.4a5.12,5.12,0,0,0-4,5.08V55.11a5.12,5.12,0,0,0,4,5.08,5,5,0,0,0,6-4.9v-30A5,5,0,0,0,185.34,20.4Z" style="fill: #a5d61d"/>
    <path d="M170.84,50.29H155.5a1,1,0,0,1-1-1V5.48a5.12,5.12,0,0,0-4-5.08,5,5,0,0,0-6,4.89v50a5,5,0,0,0,5,5H171a5,5,0,0,0,4.9-6A5.12,5.12,0,0,0,170.84,50.29Z" style="fill: #a5d61d"/>
    <path d="M60.74,20.29c-10.07,0-18.26,9-18.26,20s8.19,20,18.26,20,18.27-9,18.27-20S70.81,20.29,60.74,20.29Zm0,30c-4.55,0-8.26-4.48-8.26-10s3.71-10,8.26-10S69,34.78,69,40.29,65.3,50.29,60.74,50.29Z" style="fill: #64bb5c"/>
    <path d="M121.53,20.29c-10.08,0-18.27,9-18.27,20s8.19,20,18.27,20,18.26-9,18.26-20S131.6,20.29,121.53,20.29Zm0,30c-4.56,0-8.27-4.48-8.27-10s3.71-10,8.27-10,8.26,4.49,8.26,10S126.08,50.29,121.53,50.29Z" style="fill: #64bb5c"/>
    <path d="M108.54,8.05A5,5,0,0,0,106.2.64a5.11,5.11,0,0,0-6.11,2.06L92,15a1,1,0,0,1-1.67,0L82.11,2.68A5.12,5.12,0,0,0,76,.65a5,5,0,0,0-2.31,7.42L86,26.55a1,1,0,0,1,.17.56v28a5.12,5.12,0,0,0,4,5.08,5,5,0,0,0,6-4.9V27.1a1,1,0,0,1,.16-.56Z" style="fill: #64bb5c"/>
    <path d="M185.58,9.94a5,5,0,1,0-4.15-4.15A5,5,0,0,0,185.58,9.94Z" style="fill: #a5d61d"/>
    <path d="M228.52,20.4a5.11,5.11,0,0,0-5.68,3l-7.7,17.42a1,1,0,0,1-1.83,0l-7.78-17.59a5,5,0,0,0-9.15,4.05l13.2,29.85a5.15,5.15,0,0,0,3,2.87,5,5,0,0,0,6.18-2.72l13.26-30A5,5,0,0,0,228.52,20.4Z" style="fill: #a5d61d"/>
    <g>
      <path d="M2.32,67.62H5.23c2,0,3.48.7,3.48,2.8s-1.53,2.93-3.43,2.93H4.09v3.16H2.32ZM5.16,72C6.38,72,7,71.44,7,70.42S6.32,69,5.1,69h-1V72Z" style="fill: #64bb5c"/>
      <path d="M30.72,67.62h3.09c1.86,0,3.34.66,3.34,2.7a2.53,2.53,0,0,1-1.69,2.55l2.07,3.64h-2l-1.82-3.36H32.49v3.36H30.72Zm2.93,4.13c1.14,0,1.77-.48,1.77-1.43S34.79,69,33.65,69H32.49v2.71Z" style="fill: #64bb5c"/>
      <path d="M58.86,72c0-2.9,1.62-4.57,4-4.57s4,1.69,4,4.57-1.62,4.64-4,4.64S58.86,74.91,58.86,72ZM65,72c0-1.91-.84-3.05-2.16-3.05S60.67,70.13,60.67,72s.84,3.1,2.16,3.1S65,73.93,65,72Z" style="fill: #64bb5c"/>
      <path d="M88.94,67.62h2.44c2.71,0,4.39,1.42,4.39,4.42s-1.68,4.47-4.3,4.47H88.94Zm2.33,7.46c1.65,0,2.69-.89,2.69-3s-1-3-2.69-3h-.55v6Z" style="fill: #64bb5c"/>
      <path d="M117.86,72.51V67.62h1.78v5c0,1.85.65,2.47,1.68,2.47s1.72-.62,1.72-2.47v-5h1.71v4.89c0,3-1.26,4.17-3.43,4.17S117.86,75.47,117.86,72.51Z" style="fill: #64bb5c"/>
      <path d="M146.84,72.11c0-2.93,1.89-4.64,4.13-4.64a3.6,3.6,0,0,1,2.6,1.14l-.92,1.12A2.35,2.35,0,0,0,151,69c-1.34,0-2.35,1.15-2.35,3.06s.92,3.09,2.32,3.09a2.45,2.45,0,0,0,1.83-.87l.94,1.1a3.6,3.6,0,0,1-2.83,1.31C148.67,76.68,146.84,75.07,146.84,72.11Z" style="fill: #64bb5c"/>
      <path d="M177.14,69.11h-2.49V67.62h6.79v1.49h-2.52v7.4h-1.78Z" style="fill: #64bb5c"/>
      <path d="M203.28,67.62h1.77v8.89h-1.77Z" style="fill: #64bb5c"/>
      <path d="M227.19,72c0-2.9,1.62-4.57,4-4.57s4,1.69,4,4.57-1.62,4.64-4,4.64S227.19,74.91,227.19,72Zm6.13,0c0-1.91-.84-3.05-2.16-3.05S229,70.13,229,72s.83,3.1,2.15,3.1S233.32,73.93,233.32,72Z" style="fill: #64bb5c"/>
      <path d="M257.28,67.62h1.81l2.58,4.74.88,1.92h.07c-.09-.93-.23-2.1-.23-3.11V67.62h1.68v8.89h-1.8l-2.57-4.75-.9-1.91h-.06c.09,1,.22,2.08.22,3.1v3.56h-1.68Z" style="fill: #64bb5c"/>
    </g>
  </g>
</svg>
